<svg width="120" height="120" viewBox="0 0 32 32" fill="none" xmlns="http://www.w3.org/2000/svg">
  <rect x="1" y="1" width="30" height="30" rx="8" fill="#0d9488"/>
  <path d="M22 11.5c0-2.2-2.4-3.8-6-3.8s-6 1.6-6 3.9c0 2 1.5 3.2 4.2 3.7l2.2.4c1.4.3 2 .7 2 1.5 0 1-1.1 1.6-2.8 1.6-1.9 0-3.1-.7-3.3-1.9" stroke="white" stroke-width="2.4" stroke-linecap="round" stroke-linejoin="round" fill="none"/>
  <path d="M24.5 20.2l.8-2.1 1 2.1 2.1.3-1.5 1.5.4 2.1-1.9-1-1.9 1 .4-2.1-1.5-1.5z" fill="white"/>
</svg>
